<svg xmlns="http://www.w3.org/2000/svg" version="1.1" xmlns:xlink="http://www.w3.org/1999/xlink" xmlns:svgjs="http://svgjs.dev/svgjs" width="1000" height="623" viewBox="0 0 1000 623"><g transform="matrix(1,0,0,1,-0.6060606060606233,0.2522267206477409)"><svg viewBox="0 0 396 247" data-background-color="#ffffff" preserveAspectRatio="xMidYMid meet" height="623" width="1000" xmlns="http://www.w3.org/2000/svg" xmlns:xlink="http://www.w3.org/1999/xlink"><g id="tight-bounds" transform="matrix(1,0,0,1,0.2400000000000091,-0.09999999999999432)"><svg viewBox="0 0 395.52 247.2" height="247.2" width="395.52"><g><svg></svg></g><g><svg viewBox="0 0 395.52 247.2" height="247.2" width="395.52"><g transform="matrix(1,0,0,1,136.177008701989,47.215199999999996)"><svg viewBox="0 0 123.16598259602202 152.7696" height="152.7696" width="123.16598259602202"><g><svg viewBox="0 0 123.16598259602202 152.7696" height="152.7696" width="123.16598259602202"><g><svg viewBox="0 0 123.16598259602202 152.7696" height="152.7696" width="123.16598259602202"><g><svg viewBox="0 0 45.20017981651376 152.7696" height="152.7696" width="45.20017981651376"><g id="textblocktransform"><svg viewBox="0 0 45.20017981651376 152.7696" height="152.7696" width="45.20017981651376" id="textblock"><g><svg viewBox="0 0 45.20017981651376 152.7696" height="152.7696" width="45.20017981651376"><g transform="matrix(1,0,0,1,0,0)"><svg width="45.20017981651376" viewBox="0.15000000596046448 -36.150001525878906 12.90000057220459 43.60000228881836" height="152.7696" data-palette-color="#6a21e1"><path d="M13.05-36.15L13.05-6.55Q13.05-2.15 11.38 0.95 9.7 4.05 6.8 5.68 3.9 7.3 0.15 7.45L0.15 7.45 0.15 7.45 0.15 2.75Q3.65 2.55 5.93 0.28 8.2-2 8.2-6.7L8.2-6.7 8.2-36.15 13.05-36.15Z" opacity="1" transform="matrix(1,0,0,1,0,0)" fill="#6a21e1" class="undefined-text-0" data-fill-palette-color="primary" id="text-0"></path></svg></g></svg></g></svg></g></svg></g><g transform="matrix(1,0,0,1,81.26541590611376,55.43451665504587)"><svg viewBox="0 0 41.90056668990826 41.90056668990826" height="41.90056668990826" width="41.90056668990826"><g><svg xmlns="http://www.w3.org/2000/svg" xmlns:xlink="http://www.w3.org/1999/xlink" version="1.1" x="0" y="0" viewBox="68.5 68.5 375 375" enable-background="new 0 0 512 512" xml:space="preserve" height="41.90056668990826" width="41.90056668990826" class="icon-icon-0" data-fill-palette-color="accent" id="icon-0"><g fill="#340303" data-fill-palette-color="accent"><path d="M68.5 68.5v375h375v-375H68.5zM406 406H106V106h300V406z" fill="#340303" data-fill-palette-color="accent"></path><rect x="143.5" y="143.5" width="150" height="37.5" fill="#340303" data-fill-palette-color="accent"></rect><rect x="331" y="143.5" width="37.5" height="37.5" fill="#340303" data-fill-palette-color="accent"></rect><path d="M274.8 256h-37.5v21.4c-6.8 1.8-13.2 4.5-19.1 8L203 270.2l-26.5 26.5 15.2 15.2c-3.5 5.9-6.2 12.3-8 19.1h-21.4v37.5h61.5c-3.2-5.5-5.2-11.9-5.2-18.8 0-20.7 16.8-37.5 37.5-37.5 20.7 0 37.5 16.8 37.5 37.5 0 6.9-2 13.2-5.2 18.8h61.5V331h-21.4c-1.8-6.8-4.5-13.2-8-19.1l15.2-15.2L309 270.2l-15.2 15.2c-5.9-3.5-12.3-6.2-19.1-8V256z" fill="#340303" data-fill-palette-color="accent"></path></g></svg></g></svg></g></svg></g></svg></g></svg></g><path d="M77.042 41.215L77.042 0 324.242 0 324.242 247.2 77.042 247.2 77.042 205.985 90.819 205.985 90.819 233.423 310.465 233.423 310.465 13.777 90.819 13.777 90.819 41.215Z" fill="#6a21e1" stroke="transparent" data-fill-palette-color="primary"></path></svg></g><defs></defs></svg><rect width="395.52" height="247.2" fill="none" stroke="none" visibility="hidden"></rect></g></svg></g></svg>